HIERARCHY
ROOT Hips
{
	OFFSET -3.958830 18.904000 13.208200
	CHANNELS 6 Xposition Yposition Zposition Zrotation Yrotation Xrotation 
	JOINT LHipJoint
	{
		OFFSET 0.000000 0.000000 0.000000
		CHANNELS 3 Zrotation Yrotation Xrotation
		JOINT LeftUpLeg
		{
			OFFSET 1.800000 -1.400000 0.085000
			CHANNELS 3 Zrotation Yrotation Xrotation
			JOINT LeftLeg
			{
				OFFSET 2.215000 -6.000000 0.000000
				CHANNELS 3 Zrotation Yrotation Xrotation
				JOINT LeftFoot
				{
					OFFSET 2.500000 -6.900000 0.000000
					CHANNELS 3 Zrotation Yrotation Xrotation
					JOINT LeftToeBase
					{
						OFFSET 0.200000 -0.500000 1.950000
						CHANNELS 3 Zrotation Yrotation Xrotation
						End Site
						{
							OFFSET 0.000000 0.000000 0.000000
						}
					}
				}
			}
		}
	}
	JOINT RHipJoint
	{
		OFFSET 0.000000 0.000000 0.000000
		CHANNELS 3 Zrotation Yrotation Xrotation
		JOINT RightUpLeg
		{
			OFFSET -1.800000 -1.400000 0.085000
			CHANNELS 3 Zrotation Yrotation Xrotation
			JOINT RightLeg
			{
				OFFSET -2.215000 -6.000000 0.000000
				CHANNELS 3 Zrotation Yrotation Xrotation
				JOINT RightFoot
				{
					OFFSET -2.500000 -6.900000 0.000000
					CHANNELS 3 Zrotation Yrotation Xrotation
					JOINT RightToeBase
					{
						OFFSET -0.200000 -0.500000 1.950000
						CHANNELS 3 Zrotation Yrotation Xrotation
						End Site
						{
							OFFSET 0.000000 0.000000 0.000000
						}
					}
				}
			}
		}
	}
	JOINT LowerBack
	{
		OFFSET 0.000000 0.000000 0.000000
		CHANNELS 3 Zrotation Yrotation Xrotation
		JOINT Spine
		{
			OFFSET -0.087000 1.940000 -0.288900
			CHANNELS 3 Zrotation Yrotation Xrotation
			JOINT Spine1
			{
				OFFSET 0.000000 1.950000 0.060000
				CHANNELS 3 Zrotation Yrotation Xrotation
				JOINT Neck
				{
					OFFSET 0.000000 0.000000 0.000000
					CHANNELS 3 Zrotation Yrotation Xrotation
					JOINT Neck1
					{
						OFFSET 0.000000 1.600000 0.340000
						CHANNELS 3 Zrotation Yrotation Xrotation
						JOINT Head
						{
							OFFSET 0.000000 1.667000 -0.240000
							CHANNELS 3 Zrotation Yrotation Xrotation
							End Site
							{
								OFFSET 0.000000 0.000000 0.000000
							}
						}
					}
				}
				JOINT LeftShoulder
				{
					OFFSET 0.000000 0.000000 0.000000
					CHANNELS 3 Zrotation Yrotation Xrotation
					JOINT LeftArm
					{
						OFFSET 2.700000 1.550000 -0.730000
						CHANNELS 3 Zrotation Yrotation Xrotation
						JOINT LeftForeArm
						{
							OFFSET 5.450000 0.000000 0.000000
							CHANNELS 3 Zrotation Yrotation Xrotation
							JOINT LeftHand
							{
								OFFSET 3.450000 0.000000 0.000000
								CHANNELS 3 Zrotation Yrotation Xrotation
								JOINT LeftHandIndex1
								{
									OFFSET 0.750000 0.000000 0.000000
									CHANNELS 3 Zrotation Yrotation Xrotation
									End Site
									{
										OFFSET 0.000000 0.000000 0.000000
									}
								}
							}
						}
					}
				}
				JOINT RightShoulder
				{
					OFFSET 0.000000 0.000000 0.000000
					CHANNELS 3 Zrotation Yrotation Xrotation
					JOINT RightArm
					{
						OFFSET -2.700000 1.550000 -0.730000
						CHANNELS 3 Zrotation Yrotation Xrotation
						JOINT RightForeArm
						{
							OFFSET -5.450000 0.000000 0.000000
							CHANNELS 3 Zrotation Yrotation Xrotation
							JOINT RightHand
							{
								OFFSET -3.450000 0.000000 0.000000
								CHANNELS 3 Zrotation Yrotation Xrotation
								JOINT RightHandIndex1
								{
									OFFSET -0.750000 0.000000 0.000000
									CHANNELS 3 Zrotation Yrotation Xrotation
									End Site
									{
										OFFSET 0.000000 0.000000 0.000000
									}
								}
							}
						}
					}
				}
			}
		}
	}
}
MOTION
Frames: 14
Frame Time: 0.016667
0.469300 15.741390 -2.510900 3.766036 -7.021522 -1.420977 -16.036386 10.966240 5.867173 44.673904 4.099696 -27.531720 -22.921350 16.895394 25.139281 1.648202 9.866355 1.261219 0.010730 -0.118650 -0.145330 18.307861 -6.187555 3.866328 -21.179396 12.565189 -42.708734 13.742010 -23.360553 62.853338 -1.970930 -11.250602 0.761463 -0.575300 0.094320 0.219430 -2.742130 -5.528391 -9.863790 23.339425 -30.123568 65.531495 -13.788775 -9.790436 -25.718399 12.291773 -16.948660 -10.739223 -32.914906 9.248212 24.797693 -6.520460 3.749430 -15.123200 -13.103691 20.028573 -5.517004 -55.111194 29.814721 -17.102043 19.502528 1.091888 2.155283 -3.569189 2.921426 0.288490 -0.319200 0.271110 0.333180 -13.586736 -0.499501 10.842499 29.664522 -4.192325 -11.796678 -119.052761 22.799223 -38.755940 3.088341 -2.116865 0.295630 -0.106260 -0.216270 0.363770 
0.481670 15.715380 -2.476570 2.972817 -6.468988 0.298537 -16.038102 11.125988 5.620846 43.372362 4.271198 -27.198973 -19.823233 14.565236 21.213803 1.493556 9.041289 1.499969 0.006600 -0.111610 -0.149980 18.287775 -6.051498 4.083859 -21.906010 12.785501 -44.066255 15.790289 -24.449649 61.725492 -1.995403 -11.336889 0.746909 -0.576570 0.097770 0.215400 -2.687957 -5.852026 -9.822886 26.323579 -31.357841 62.401053 -15.194113 -9.559762 -26.108829 12.397630 -17.102862 -10.891095 -33.086522 8.934909 24.959039 -7.330320 4.503680 -13.378480 -13.456369 20.287921 -5.303053 -54.863467 32.743230 -18.164374 15.992819 -2.371118 1.236612 -3.532447 2.880657 0.264690 -0.307500 0.269070 0.342750 -13.626446 0.076311 10.918744 29.642960 -2.890315 -11.568261 -119.908866 16.512775 -29.353321 3.165969 -2.206503 0.302210 -0.116750 -0.229280 0.373070 
0.495220 15.672880 -2.434570 1.956233 -6.103250 3.181473 -15.986866 11.374665 5.080379 40.707992 4.273494 -27.152122 -14.060647 11.602433 16.786009 1.281559 7.723506 1.912082 0.014580 -0.095000 -0.167430 18.295936 -5.938698 4.514090 -23.026789 13.385721 -47.024066 18.326569 -25.655126 60.396546 -2.036538 -11.438555 0.736853 -0.566760 0.123370 0.204940 -2.722495 -6.090232 -9.703148 30.747347 -32.570040 57.542940 -17.412771 -8.766475 -26.835801 11.876769 -17.668648 -11.574892 -34.678693 8.888652 24.426966 -5.862220 4.652600 -11.256490 -11.814959 20.284014 -4.306830 -54.989449 35.106976 -18.990336 11.706040 -2.027694 0.842515 -3.530897 2.811900 0.262920 -0.299910 0.265760 0.375180 -14.023187 1.591263 10.686669 31.129442 -1.088727 -11.891783 -122.934456 5.284451 -11.423324 3.279007 -2.354527 0.293090 -0.108740 -0.250290 0.389870 
0.500760 15.635090 -2.388520 0.685749 -5.212407 6.778102 -15.989641 11.611622 4.659764 38.221142 4.129910 -28.329598 -8.469355 9.181010 12.687250 1.089728 6.561765 2.301502 -0.051290 -0.184870 -0.201750 18.270009 -5.695999 4.935232 -24.166626 13.744092 -50.350378 21.397421 -27.041454 58.414002 -2.035574 -11.499210 0.735427 -0.590870 0.186690 0.180360 -2.628224 -6.629623 -9.646402 35.081008 -33.296551 52.585056 -19.427201 -7.030602 -28.432656 11.370184 -17.915395 -12.489828 -35.363339 8.494235 24.033834 -4.339230 5.092460 -7.464370 -9.499719 20.196897 -2.892183 -57.474655 38.443923 -21.047899 10.386157 -4.512847 0.383394 -3.574214 2.708526 0.275130 -0.255070 0.214650 0.359290 -14.891589 3.687056 10.254601 31.274769 0.700796 -12.847184 -127.550075 -9.018155 15.752343 3.480306 -2.440914 0.226560 -0.081900 -0.206440 0.365440 
0.506100 15.586280 -2.369010 -0.719635 -5.147758 8.802541 -15.980932 11.591926 4.494274 37.622192 4.301482 -28.400400 -5.342916 8.054088 9.876767 1.013282 6.107572 2.453251 -0.107550 -0.263010 -0.215320 18.287540 -5.532637 5.190863 -24.476799 14.726336 -52.426159 23.516612 -27.844481 57.300865 -2.049860 -11.543961 0.718789 -0.614790 0.222180 0.175500 -2.650200 -6.686723 -9.654472 38.052885 -33.491480 49.345659 -21.417053 -5.896631 -28.154152 11.219303 -17.932301 -13.457985 -35.894198 8.127266 24.505722 -3.294410 5.035030 -5.466190 -7.072767 18.789780 -1.310842 -59.649633 38.904847 -21.963521 8.829243 -3.161180 0.286325 -3.665777 2.618009 0.286960 -0.224960 0.183130 0.315800 -16.457238 6.214052 9.795521 31.088997 2.472683 -14.604343 -135.111900 -20.099002 41.494213 3.672739 -2.442549 0.187310 -0.061070 -0.146000 0.337580 
0.484650 15.546900 -2.381590 -1.519755 -4.982045 9.617946 -15.973761 11.498602 4.475210 37.761121 4.552633 -29.397755 -3.917846 7.879785 10.179297 0.978893 6.038805 2.457682 -0.087660 -0.260150 -0.180280 18.319564 -5.432346 5.335507 -24.239731 15.541411 -53.835775 24.084133 -28.158985 57.426848 -2.107634 -11.634300 0.682806 -0.618020 0.212610 0.209400 -2.699800 -6.614958 -9.712169 38.505288 -32.682211 48.223864 -22.010585 -4.907179 -27.726665 11.542793 -17.438712 -14.402141 -36.291822 8.082968 26.622566 -2.834200 4.907950 -3.838900 -5.401240 15.922502 0.213993 -60.796769 36.659145 -21.135185 8.055199 2.275580 0.710023 -3.757338 2.624858 0.309780 -0.216840 0.205670 0.301630 -17.743115 8.707471 9.055791 31.251923 2.071177 -17.406493 -143.521771 -28.801609 68.536775 3.815912 -2.406577 0.202180 -0.072320 -0.135490 0.321640 
0.449090 15.538570 -2.426900 -1.668684 -4.517877 9.229605 -15.920856 11.214158 4.598004 38.599852 4.816491 -31.217129 -4.735736 8.620612 13.603369 0.985344 6.331705 2.301370 -0.021360 -0.181740 -0.150020 18.409920 -5.515910 5.332836 -23.362165 16.010919 -54.218902 22.927456 -27.946807 58.703322 -2.169529 -11.744961 0.614646 -0.594080 0.147660 0.258780 -2.900297 -6.024757 -9.761768 37.542148 -32.021656 48.294580 -22.290167 -4.968305 -26.748764 11.583634 -16.939901 -14.979319 -37.098760 8.366032 28.193772 -1.360600 4.008160 -3.800910 -4.317628 12.062435 1.816215 -61.317448 33.148084 -19.874492 7.523204 7.893886 1.240413 -3.776996 2.761469 0.322080 -0.245650 0.259420 0.296860 -18.016887 10.836131 8.136851 31.370666 1.009943 -20.214867 -152.526124 -35.821957 96.104299 3.892920 -2.380772 0.268600 -0.136490 -0.154950 0.326260 
0.395710 15.547360 -2.484830 -1.342201 -4.286406 8.072319 -15.875629 10.783252 4.922682 40.288318 5.105415 -32.921218 -7.795059 10.290132 18.453135 1.029578 7.137953 2.007056 0.023530 -0.133870 -0.095320 18.506357 -5.602247 5.233411 -22.629509 16.547157 -53.597682 22.262345 -27.555460 59.454290 -2.215396 -11.735430 0.595051 -0.577540 0.082440 0.265710 -3.117033 -5.273079 -9.887655 34.743965 -31.262424 50.344864 -22.254789 -5.512126 -25.554419 11.400219 -16.362506 -15.022998 -36.713018 8.179817 29.539544 -0.539470 3.248400 -6.443290 -4.109162 9.237322 2.981449 -61.401939 31.185418 -19.449238 6.499036 7.824933 1.026074 -3.700117 2.794830 0.369090 -0.295490 0.314920 0.280410 -17.625167 11.870514 7.337143 31.093601 0.916579 -21.838813 -160.477132 -38.872098 116.127171 3.921914 -2.317788 0.288870 -0.142080 -0.174970 0.308670 
0.356790 15.582100 -2.558170 -1.419830 -4.712735 6.391659 -15.863432 10.334666 5.345339 42.450473 5.597650 -34.326277 -11.406339 12.649073 23.897107 1.126298 8.282314 1.623432 0.045900 -0.106270 -0.079160 18.578865 -5.652099 5.057505 -20.933425 17.712880 -52.205101 20.847251 -26.419138 60.317707 -2.211472 -11.605263 0.620973 -0.555050 0.060470 0.259620 -3.275947 -4.577790 -10.025068 31.279583 -30.953014 54.136735 -22.019264 -5.669542 -24.300524 11.207037 -16.377792 -15.145828 -37.286072 8.231493 29.614341 0.423970 2.479280 -9.304810 -4.666495 6.911993 3.607231 -61.058368 28.678714 -18.439593 6.763739 7.034821 0.928374 -3.636956 2.829778 0.404160 -0.325940 0.334810 0.267580 -16.659866 13.382219 7.099477 29.651944 2.362475 -22.034051 -164.683488 -36.742912 120.427854 3.883331 -2.357565 0.284140 -0.118560 -0.167170 0.298420 
0.315720 15.624630 -2.657810 -0.409311 -5.167338 3.272706 -15.841668 10.255293 5.525509 42.478765 5.225848 -35.760368 -13.288101 15.045047 30.998900 1.198342 9.281761 1.278268 0.063120 -0.101870 -0.055930 18.590822 -5.876981 4.830965 -19.479300 18.277095 -49.277700 19.287501 -24.859178 61.239554 -2.153477 -11.433624 0.632820 -0.519320 0.037460 0.240590 -3.339823 -4.164073 -10.051894 25.340119 -29.270236 60.523856 -20.506122 -5.694857 -23.240722 10.775736 -16.691171 -15.023757 -37.772021 8.110391 28.523615 1.875970 1.462820 -12.663610 -4.723133 6.070090 3.695756 -59.995829 25.665709 -16.949617 8.359128 3.722602 0.707454 -3.569092 2.883555 0.432630 -0.353200 0.314740 0.220780 -15.885942 13.937457 7.054640 27.399714 4.046081 -21.234887 -165.164246 -32.202105 112.536886 3.791525 -2.482713 0.259270 -0.102900 -0.132740 0.263070 
0.277840 15.672540 -2.761630 0.541150 -6.182815 -0.423737 -15.872255 10.357342 5.659955 41.963566 4.686827 -36.991552 -13.717199 17.774355 39.384808 1.419343 10.392286 0.968632 0.045900 -0.110060 -0.099170 18.539803 -6.059419 4.561037 -17.350924 18.772874 -45.588736 17.644479 -22.979157 61.988973 -2.066971 -11.233994 0.694792 -0.497910 0.087910 0.227210 -3.246860 -4.113322 -10.071276 18.457138 -25.458890 68.327994 -17.572805 -4.502448 -21.457977 10.683771 -17.139930 -15.323481 -37.531407 6.271916 25.759895 2.989430 -0.353940 -14.028860 -5.248416 5.048532 3.265313 -57.987983 21.795634 -15.009155 8.669500 1.278140 0.467135 -3.544429 2.949689 0.389880 -0.324200 0.259230 0.225770 -14.855975 15.352931 8.179796 23.992052 1.917890 -21.115787 -161.537729 -27.975920 91.801313 3.673805 -2.700072 0.239930 -0.078170 -0.109900 0.278320 
0.249710 15.719210 -2.876800 1.652822 -7.269301 -5.610163 -15.829720 10.586509 5.596928 40.047599 3.649600 -36.836202 -12.723062 20.178416 47.894656 1.625310 11.441729 0.703226 0.041000 -0.115740 -0.102580 18.504415 -6.539629 4.212724 -14.969631 18.542669 -40.373310 15.775069 -21.047765 62.980564 -1.992160 -11.052446 0.749479 -0.447230 0.132290 0.186210 -3.254606 -3.750000 -9.940796 12.433469 -21.117218 75.161499 -15.862785 -3.999997 -15.177215 11.137623 -17.477395 -15.415101 -36.092423 3.942000 22.509402 3.269760 -2.746650 -17.830600 -5.617450 3.224159 3.071033 -55.912287 17.219937 -13.726921 9.910041 -5.357906 -0.226515 -3.456245 2.981988 0.379070 -0.308150 0.206900 0.222520 -15.285381 16.930898 8.884930 22.570863 0.022259 -22.568346 -154.574357 -21.306717 52.634890 3.422670 -2.893254 0.179240 0.008120 -0.084960 0.268000 
0.227040 15.742830 -2.971620 2.436131 -7.669458 -10.053404 -15.712303 10.550252 5.581557 37.731304 2.261150 -37.056037 -11.665156 22.652571 56.264897 1.779848 12.584916 0.348190 0.132530 -0.028870 -0.017610 18.543436 -7.175509 3.890391 -12.638961 17.408276 -36.389031 12.960259 -19.438483 64.741353 -1.977139 -11.025999 0.700032 -0.325920 0.099600 0.209550 -3.449656 -2.809480 -9.748833 9.338151 -16.979831 76.716567 -14.782170 -4.382711 -3.056145 11.326643 -16.732697 -15.502748 -32.540799 2.955417 20.062203 2.803970 -4.621930 -22.491420 -4.424647 -2.017290 4.611118 -53.575762 12.126598 -12.353636 8.767178 -9.861291 -0.853397 -3.381874 3.068643 0.404140 -0.293950 0.202960 0.184490 -16.364244 19.362352 8.865374 20.863795 -3.574259 -25.652587 -141.787803 -12.268245 3.782480 3.012676 -2.976937 0.155280 0.042720 -0.062550 0.213010 
0.185650 15.771480 -3.036450 2.815729 -7.985623 -12.441210 -15.632470 10.407403 5.654985 35.506422 1.192455 -37.728670 -11.615707 25.081184 62.356652 2.017429 13.574859 0.067733 0.189460 0.008200 0.073600 18.579567 -7.556736 3.707395 -11.020609 16.727570 -34.141713 11.480792 -18.372860 65.272613 -1.975938 -10.929566 0.681214 -0.292450 0.037080 0.272850 -3.599446 -2.100892 -9.673884 7.307148 -13.540159 77.531497 -14.336344 -3.134616 3.259197 10.255847 -15.214655 -15.296107 -28.176982 2.112465 20.479091 1.932780 -5.212030 -24.502590 -0.056608 -4.334787 6.742711 -49.476938 11.336352 -13.832119 -3.138180 -20.169236 -1.097806 -3.198787 3.206730 0.430450 -0.285890 0.239500 0.144790 -18.438924 19.271837 8.123865 21.181158 -7.416298 -28.190979 -129.964543 -2.778720 -18.856220 2.899065 -2.902569 0.178810 -0.006330 -0.066930 0.164590 
